<?xml version="1.0" standalone="no"?>
<!DOCTYPE svg PUBLIC "-//W3C//DTD SVG 20010904//EN"
 "http://www.w3.org/TR/2001/REC-SVG-20010904/DTD/svg10.dtd">
<svg version="1.0" xmlns="http://www.w3.org/2000/svg"
 width="309.000000pt" height="305.000000pt" viewBox="0 0 309.000000 305.000000"
 preserveAspectRatio="xMidYMid meet">

<g transform="translate(0.000000,305.000000) scale(0.100000,-0.100000)"
fill="#000000" stroke="none">
<path d="M1578 2953 c6 -2 18 -2 25 0 6 3 1 5 -13 5 -14 0 -19 -2 -12 -5z"/>
<path d="M1178 2940 c-20 -4 -43 -11 -50 -17 -7 -6 -32 -11 -54 -11 -23 -1
-61 -10 -85 -21 l-44 -20 33 0 c18 -1 31 -5 28 -10 -4 -5 0 -12 6 -14 19 -8
-7 -24 -71 -43 -50 -14 -170 -69 -246 -112 -35 -20 -41 -24 -83 -61 -19 -16
-44 -32 -58 -35 -13 -4 -45 -30 -71 -59 -26 -28 -66 -70 -88 -91 -22 -22 -51
-60 -65 -85 -15 -28 -38 -53 -59 -63 -18 -9 -42 -31 -53 -48 -22 -36 -49 -112
-43 -119 5 -4 42 34 98 99 16 20 33 30 42 26 9 -3 15 0 15 10 0 8 17 30 37 49
21 19 34 37 30 41 -4 4 8 18 25 30 17 13 34 22 36 19 2 -2 -18 -30 -45 -62
-94 -109 -178 -250 -233 -390 -18 -46 -36 -83 -40 -83 -21 0 -32 33 -26 76 6
45 5 45 -21 42 -21 -2 -29 -10 -34 -33 -4 -16 -14 -47 -23 -67 -10 -25 -16
-66 -16 -120 0 -82 1 -83 30 -100 18 -10 30 -25 30 -38 0 -11 5 -20 10 -20 6
0 10 -42 10 -106 0 -90 -2 -105 -14 -95 -19 16 -31 -16 -14 -37 10 -12 10 -16
1 -19 -9 -3 -9 -12 -2 -29 5 -14 9 -39 9 -57 0 -55 -28 -11 -39 63 -15 88 -14
140 0 120 9 -12 9 -11 4 5 -4 11 -10 41 -12 68 -3 26 -9 47 -13 47 -24 0 -8
-345 21 -445 66 -230 149 -417 214 -485 23 -25 46 -55 50 -68 3 -12 15 -27 26
-32 10 -6 19 -17 19 -24 0 -7 14 -17 32 -22 22 -7 34 -17 38 -34 4 -14 12 -24
19 -22 6 1 28 -9 49 -23 20 -14 43 -25 50 -25 8 0 40 -26 72 -59 32 -32 78
-68 102 -79 23 -11 70 -32 103 -48 33 -15 67 -33 76 -41 9 -8 57 -23 105 -34
49 -11 103 -23 119 -28 17 -5 52 -9 78 -10 26 -1 80 -6 120 -11 94 -14 391
-14 416 0 30 16 81 13 81 -5 0 -11 -11 -15 -42 -15 -24 0 -61 -5 -82 -10 -55
-12 -345 -13 -441 -1 -88 11 -195 34 -238 50 -16 6 -40 11 -55 11 -26 -1 -26
-1 7 -15 18 -8 63 -22 100 -30 36 -8 100 -22 141 -31 99 -22 358 -30 431 -14
65 15 67 15 199 30 108 13 179 33 263 76 26 13 54 24 62 24 8 0 15 7 15 15 0
9 12 18 29 21 17 4 32 12 35 20 3 8 12 14 19 14 8 0 20 7 27 15 7 8 42 36 79
61 36 25 93 65 126 90 33 24 67 47 75 50 8 3 24 10 35 15 11 4 36 10 55 11 34
3 35 5 40 49 4 29 15 57 32 77 15 18 34 58 43 89 9 32 21 63 27 70 5 7 7 16 4
21 -3 6 1 15 9 22 8 7 15 24 15 38 0 23 62 225 80 262 19 40 42 226 35 289 -3
36 -10 116 -14 176 -5 61 -16 135 -25 165 -9 30 -13 67 -10 82 3 15 -1 39 -10
57 -9 16 -16 46 -16 64 0 53 -38 163 -65 193 -14 15 -25 36 -25 46 0 11 -23
62 -51 113 -35 67 -54 92 -65 88 -8 -3 -14 0 -14 7 0 6 5 8 10 5 14 -8 13 -2
-5 31 -14 27 -15 28 -15 6 0 -29 -22 -25 -30 5 -3 11 -25 37 -49 57 -24 20
-65 58 -91 84 -68 68 -138 132 -144 132 -3 0 -3 -7 1 -16 8 -21 -18 -13 -117
36 -41 21 -95 41 -119 45 -24 4 -58 15 -75 25 -32 18 -184 65 -246 75 -70 11
-106 16 -162 22 -45 4 -58 9 -58 22 0 13 -2 13 -9 2 -6 -10 -20 -12 -47 -7
-22 4 -61 10 -89 15 -53 8 -48 13 25 28 36 7 21 9 -80 9 -69 0 -142 -3 -162
-6z m833 -736 c69 -21 113 -66 136 -142 16 -51 18 -115 18 -642 l0 -585 -330
-3 c-181 -2 -480 0 -662 3 l-333 7 0 284 0 284 135 0 135 0 0 -110 0 -110 120
0 120 0 0 105 0 105 130 0 130 0 0 -110 0 -110 140 0 140 0 0 120 0 120 -526
0 -526 0 5 268 c6 283 14 348 56 416 13 20 38 48 57 62 66 51 86 53 560 53
377 1 448 -1 495 -15z"/>
<path d="M1096 1855 c-9 -9 -16 -25 -16 -35 0 -10 -3 -25 -6 -34 -6 -14 36
-16 425 -16 l431 0 0 28 c0 16 -6 37 -14 48 -14 18 -32 19 -409 22 -352 2
-397 1 -411 -13z"/>
<path d="M929 2823 c-13 -17 -13 -17 6 -3 11 8 22 16 24 17 2 2 0 3 -6 3 -6 0
-17 -8 -24 -17z"/>
<path d="M2220 2756 c0 -2 8 -10 18 -17 15 -13 16 -12 3 4 -13 16 -21 21 -21
13z"/>
<path d="M570 2670 c-13 -8 -13 -10 2 -10 9 0 20 5 23 10 8 13 -5 13 -25 0z"/>
<path d="M475 2599 c-11 -17 1 -21 15 -4 8 9 8 15 2 15 -6 0 -14 -5 -17 -11z"/>
<path d="M389 2500 c-30 -27 -56 -51 -59 -52 -3 -2 -13 -18 -24 -36 -18 -34
-18 -34 2 -23 33 17 156 161 139 161 -2 0 -28 -22 -58 -50z"/>
<path d="M256 2335 c-9 -14 -13 -25 -8 -25 5 0 14 11 20 25 6 14 10 25 8 25
-2 0 -11 -11 -20 -25z"/>
<path d="M3014 1505 c-3 -8 -4 -20 -2 -27 3 -7 7 -1 10 15 6 29 1 36 -8 12z"/>
<path d="M3032 1430 c-6 -11 -12 -38 -12 -59 0 -22 -4 -43 -10 -46 -5 -3 -10
-17 -10 -30 0 -33 -18 -41 -30 -13 -11 23 -11 23 -6 1 2 -13 1 -23 -2 -23 -4
0 -8 -30 -10 -67 -1 -43 -11 -89 -27 -129 -14 -34 -25 -70 -25 -79 0 -9 -6
-29 -14 -43 -22 -45 -38 -98 -24 -84 19 19 38 14 39 -10 0 -13 3 -17 6 -10 2
6 10 12 17 12 7 0 20 17 29 38 36 83 67 170 77 217 6 28 16 58 21 67 12 23 12
31 -1 23 -5 -3 -10 1 -10 9 0 9 4 16 8 16 5 0 15 32 22 72 11 65 11 73 -5 84
-9 7 -14 17 -11 22 3 6 3 20 -2 31 -7 21 -7 21 -20 1z"/>
</g>
</svg>
